<?xml version="1.0" encoding="UTF-8" standalone="no"?>
<svg
   xmlns:dc="http://purl.org/dc/elements/1.1/"
   xmlns:cc="http://creativecommons.org/ns#"
   xmlns:rdf="http://www.w3.org/1999/02/22-rdf-syntax-ns#"
   xmlns:svg="http://www.w3.org/2000/svg"
   xmlns="http://www.w3.org/2000/svg"
   xmlns:sodipodi="http://sodipodi.sourceforge.net/DTD/sodipodi-0.dtd"
   xmlns:inkscape="http://www.inkscape.org/namespaces/inkscape"
   version="1.1"
   id="svg2"
   xml:space="preserve"
   width="2560"
   height="579.69598"
   viewBox="0 0 2560 579.69598"
   sodipodi:docname="apex logo (1).ai"><metadata
     id="metadata8"><rdf:RDF><cc:Work
         rdf:about=""><dc:format>image/svg+xml</dc:format><dc:type
           rdf:resource="http://purl.org/dc/dcmitype/StillImage" /></cc:Work></rdf:RDF></metadata><defs
     id="defs6"><clipPath
       clipPathUnits="userSpaceOnUse"
       id="clipPath22"><path
         d="M 0,434.772 H 1920 V 0 H 0 Z"
         id="path20" /></clipPath></defs><sodipodi:namedview
     pagecolor="#ffffff"
     bordercolor="#666666"
     borderopacity="1"
     objecttolerance="10"
     gridtolerance="10"
     guidetolerance="10"
     inkscape:pageopacity="0"
     inkscape:pageshadow="2"
     inkscape:window-width="640"
     inkscape:window-height="480"
     id="namedview4" /><g
     id="g10"
     inkscape:groupmode="layer"
     inkscape:label="apex logo (1)"
     transform="matrix(1.3333333,0,0,-1.3333333,0,579.696)"><path
       d="M 0,0 H 870.434 V 434.772 H 0 Z"
       style="fill:#d80f0f;fill-opacity:1;fill-rule:nonzero;stroke:none"
       id="path12" /><path
       d="M 773.775,0 H 1916.077 V 434.772 H 773.775 Z"
       style="fill:#160808;fill-opacity:1;fill-rule:nonzero;stroke:none"
       id="path14" /><g
       id="g16"><g
         id="g18"
         clip-path="url(#clipPath22)"><g
           id="g24"
           transform="translate(139.3638,313.3418)"><path
             d="m 0,0 c -0.535,0 -1.07,-0.001 -1.605,-0.001 -0.439,-2.04 -0.951,-4.066 -1.306,-6.12 -3.051,-17.644 -6.093,-35.288 -9.098,-52.939 -2.415,-14.185 -4.753,-28.383 -7.176,-42.567 -0.606,-3.546 0.787,-5.134 4.341,-5.091 9.929,0.12 19.863,0.371 29.789,0.212 5.606,-0.09 6.398,2.213 5.372,7.209 C 13.855,-67.839 7.638,-36.331 1.316,-4.845 0.987,-3.207 0.443,-1.614 0,0 m -86.592,-211.687 c 1.241,6.941 2.297,13.81 3.712,20.604 8.901,42.735 17.95,85.44 26.815,128.183 7.122,34.343 14.081,68.72 21.052,103.095 1.958,9.651 1.862,9.713 11.468,9.864 15.986,0.25 31.98,0.255 47.959,0.756 5.315,0.166 7.64,-1.797 8.81,-6.857 5.485,-23.728 11.188,-47.406 16.91,-71.078 5.539,-22.912 11.244,-45.784 16.79,-68.694 4.631,-19.13 9.171,-38.284 13.69,-57.44 3.935,-16.682 7.632,-33.421 11.765,-50.052 1.287,-5.18 0.107,-7.262 -5.328,-7.244 -13.256,0.045 -26.516,-0.335 -39.763,-0.045 -1.894,0.041 -4.976,2.568 -5.396,4.421 -4.085,18.054 -7.89,36.177 -11.36,54.359 -0.853,4.465 -2.445,6.566 -7.09,6.461 -15.589,-0.353 -31.188,-0.404 -46.767,-1 -1.559,-0.059 -3.968,-2.845 -4.346,-4.699 -2.058,-10.104 -3.579,-20.318 -5.33,-30.486 -1.489,-8.647 -2.914,-17.309 -4.676,-25.901 -0.323,-1.572 -2.108,-4.042 -3.256,-4.064 -14.923,-0.275 -29.853,-0.183 -45.659,-0.183"
             style="fill:#fffdfe;fill-opacity:1;fill-rule:nonzero;stroke:none"
             id="path26" /></g><g
           id="g28"
           transform="translate(344.6489,203.0235)"><path
             d="m 0,0 c -0.556,0.029 -1.112,0.06 -1.668,0.089 0,7.01 0.451,14.056 -0.102,21.022 -0.922,11.618 -2.024,23.263 -3.939,34.748 -1.327,7.954 -7.675,12.508 -15.812,13.147 -8.823,0.692 -16.667,-2.955 -19.316,-10.112 -1.993,-5.386 -3.274,-11.225 -3.744,-16.955 -2.167,-26.477 -1.417,-52.97 1.822,-79.298 0.82,-6.667 3.61,-13.704 7.437,-19.223 4.148,-5.982 11.75,-6.999 18.654,-5.044 6.483,1.837 11.646,6.324 12.418,13.4 C -2.498,-32.187 -1.377,-16.079 0,0 m -47.318,85.085 c 6.379,5.856 11.594,12.396 18.303,16.481 21.643,13.175 52.2,3.26 62.263,-19.918 7.641,-17.599 9.766,-36.475 10.209,-55.421 0.464,-19.876 0.688,-39.809 -0.284,-59.654 -0.797,-16.286 -2.75,-32.654 -10.741,-47.468 -6.24,-11.565 -16.414,-18.045 -28.97,-19.389 -17.16,-1.837 -33.268,0.815 -43.679,17.108 -0.269,0.421 -0.893,0.614 -2.165,1.446 -0.417,-2.002 -1.041,-3.55 -1.014,-5.086 0.397,-23.001 0.771,-46.003 1.44,-68.996 0.131,-4.481 -1.895,-6.208 -5.69,-6.287 -11.3,-0.231 -22.606,-0.219 -33.91,-0.306 -4.352,-0.033 -5.58,2.459 -5.614,6.403 -0.182,20.673 -0.5,41.345 -0.738,62.017 -0.315,27.304 -0.577,54.609 -0.901,81.914 -0.342,28.857 -0.728,57.714 -1.097,86.57 -0.088,6.822 -0.175,13.646 -0.279,20.468 -0.06,3.922 1.165,6.016 5.768,5.924 9.547,-0.193 19.119,-0.019 28.657,0.457 5.852,0.291 8.26,-1.863 7.876,-7.73 -0.196,-2.987 0.378,-6.024 0.566,-8.533"
             style="fill:#fffdfe;fill-opacity:1;fill-rule:nonzero;stroke:none"
             id="path30" /></g><g
           id="g32"
           transform="translate(485.1914,232.3652)"><path
             d="m 0,0 c 0,0.025 0,0.052 0,0.078 5.446,0 10.896,0.143 16.335,-0.048 4.024,-0.14 5.825,1.438 5.382,5.493 -0.881,8.068 -1.11,16.268 -2.75,24.176 -2.094,10.099 -8.09,13.944 -19.738,14.281 -9.048,0.261 -17,-4.444 -18.946,-13.173 -1.922,-8.624 -2.2,-17.657 -2.599,-26.536 -0.06,-1.349 3.029,-3.911 4.829,-4.075 C -11.7,-0.332 -5.835,0 0,0 m 22.111,-31.751 c -13.054,0 -26.111,0.127 -39.158,-0.177 -1.477,-0.034 -4.064,-2.416 -4.164,-3.847 -1.036,-14.833 -1.028,-29.73 3.565,-44.03 4.825,-15.021 17.615,-19.56 30.94,-11.326 6.569,4.059 7.708,11.331 9.285,18.151 0.393,1.697 0.356,3.489 0.577,5.229 1.49,11.72 1.494,11.791 13.148,11.934 7.99,0.097 15.983,-0.076 23.974,-0.055 3.087,0.008 5.448,-0.696 5.528,-4.391 0.362,-16.719 -0.329,-33.173 -10.39,-47.659 -5.05,-7.272 -11.674,-12.531 -19.773,-15.745 -19.949,-7.914 -40.521,-7.87 -60.881,-2.593 -18.53,4.804 -29.396,18.353 -35.452,35.896 -5.943,17.218 -6.081,35.302 -6.557,53.19 -0.492,18.5 -0.416,37.057 0.436,55.541 1.295,28.087 12.747,47.917 37.478,56.276 13.141,4.441 26.68,5.075 40.438,3.739 14.263,-1.385 26.814,-6.257 37.174,-16.413 7.499,-7.351 12.854,-16.349 14.053,-26.408 2.439,-20.479 3.304,-41.145 4.825,-61.733 0.284,-3.847 -1.612,-5.065 -5.279,-5.031 -13.254,0.126 -26.511,0.05 -39.767,0.05 z"
             style="fill:#fffdfe;fill-opacity:1;fill-rule:nonzero;stroke:none"
             id="path34" /></g><g
           id="g36"
           transform="translate(714.9434,303.4082)"><path
             d="m 0,0 c -3.516,-7.48 -6.77,-14.623 -10.208,-21.677 -11.451,-23.494 -22.929,-46.975 -34.502,-70.409 -1.749,-3.542 -1.535,-6.469 0.254,-10.045 6.369,-12.724 12.229,-25.703 18.475,-38.491 6.5,-13.307 13.279,-26.476 19.822,-39.762 2.927,-5.942 5.574,-12.022 8.693,-18.787 -2.592,-0.507 -4.432,-1.165 -6.279,-1.181 -12.484,-0.102 -24.971,0.013 -37.456,-0.126 -4.183,-0.045 -6.388,1.727 -7.972,5.59 -5.705,13.916 -11.718,27.706 -17.659,41.526 -0.67,1.56 -1.619,3.001 -3.261,5.999 -3.319,-7.398 -6.126,-13.403 -8.723,-19.497 -4.036,-9.469 -7.709,-19.102 -12.048,-28.427 -1.017,-2.187 -4.032,-4.782 -6.217,-4.867 -13.656,-0.53 -27.338,-0.438 -41.012,-0.437 -1.653,0 -3.305,0.691 -5.821,1.255 6.41,13.143 12.397,25.582 18.528,37.949 9.761,19.689 19.581,39.348 29.466,58.974 1.923,3.818 2.016,6.941 -0.154,11.051 -15.155,28.705 -29.934,57.609 -44.806,86.464 -2.73,5.295 -2.193,6.09 3.618,6.102 11.89,0.025 23.782,0.053 35.672,0.164 9.442,0.088 10.157,-0.755 13.803,-9.635 5.25,-12.783 11.077,-25.329 17.253,-39.326 1.733,2.739 3.055,4.308 3.816,6.115 5.145,12.215 9.953,24.579 15.407,36.651 1.177,2.602 4.483,5.914 6.913,6.002 13.844,0.497 27.72,0.123 41.585,0.005 C -2.281,1.176 -1.752,0.753 0,0"
             style="fill:#fffdfe;fill-opacity:1;fill-rule:nonzero;stroke:none"
             id="path38" /></g><g
           id="g40"
           transform="translate(867.2783,245.1953)"><path
             d="m 0,0 c 1.332,-24.149 2.505,-50.632 4.453,-77.058 0.488,-6.614 2.422,-13.6 5.524,-19.441 5.953,-11.205 21.959,-14.89 33.837,-10.23 12.014,4.712 13.646,15.34 15.66,25.361 1.668,8.296 1.413,17.039 1.43,25.586 0.014,6.886 0.524,7.968 7.33,8.005 11.114,0.059 22.227,-0.031 33.341,-0.002 2.996,0.008 5.483,-0.435 5.764,-4.165 1.49,-19.72 -0.464,-39.035 -7.86,-57.461 -7.526,-18.75 -21.51,-30.675 -40.932,-35.934 -20.048,-5.429 -40.207,-5.57 -59.794,1.703 -20.661,7.673 -31.901,24.238 -38.281,44.369 -6.791,21.425 -7.175,43.778 -7.689,65.948 -0.574,24.734 -1.02,49.544 0.311,74.222 0.809,14.993 3.68,30.234 8.135,44.584 6.697,21.577 22.233,35.206 44.439,40.472 18.593,4.41 37.27,4.021 55.482,-1.599 22.468,-6.933 34.922,-23.47 39.821,-45.725 2.374,-10.784 2.908,-21.968 4.417,-32.952 0.529,-3.856 -1.331,-4.756 -4.658,-4.758 -11.5,-0.008 -23.004,0.024 -34.5,-0.268 -5.678,-0.145 -7.337,2.693 -7.721,7.783 -0.553,7.325 -0.898,14.797 -2.682,21.865 C 53.24,80.557 46.265,87.387 35.604,88.997 24.846,90.623 14.492,89.067 8.622,78.509 5.861,73.545 3.975,67.586 3.528,61.933 1.964,42.125 1.198,22.254 0,0"
             style="fill:#fffdfe;fill-opacity:1;fill-rule:nonzero;stroke:none"
             id="path42" /></g><g
           id="g44"
           transform="translate(1642.4346,233.7461)"><path
             d="m 0,0 v -0.606 c 6.223,0 12.444,0.018 18.666,-0.008 3.059,-0.013 4.857,1.152 4.534,4.511 C 22.496,11.228 22.29,18.645 21.002,25.87 18.176,41.728 1.574,49.25 -12.445,41.02 -15.373,39.3 -18.7,36.126 -19.363,33.081 -21.407,23.7 -22.463,14.076 -23.315,4.494 -23.436,3.146 -20.383,0.358 -18.628,0.207 -12.459,-0.326 -6.215,0 0,0 m 23.045,-32.947 c -13.45,0 -26.901,-0.026 -40.352,0.02 -2.824,0.009 -5.191,-0.302 -4.965,-3.975 0.844,-13.741 0.611,-27.656 2.81,-41.176 2.915,-17.927 23.331,-25.118 36.057,-13.241 3.019,2.818 4.884,7.461 5.982,11.607 1.435,5.412 1.749,11.152 2.213,16.779 0.282,3.407 1.865,5.031 5.117,5.012 11.113,-0.065 22.225,-0.193 33.337,-0.335 3.492,-0.044 5.434,-1.743 5.449,-5.39 0.073,-17.188 -1.81,-33.897 -12.53,-48.242 -7.919,-10.596 -19.174,-16.678 -31.726,-18.043 -14.599,-1.587 -29.681,-2.201 -44.191,-0.367 -23.863,3.018 -41.85,22.165 -45.224,47.952 -2.842,21.734 -3.783,43.76 -4.624,65.693 -0.498,12.988 0.45,26.075 1.415,39.067 2.269,30.536 18.355,50.186 49.328,55.667 18.081,3.2 35.825,2.662 52.693,-4.986 13.835,-6.274 23.805,-16.584 28.79,-31.296 7.931,-23.403 6.486,-47.648 6.63,-71.762 0.023,-4.015 -2.829,-3.626 -5.272,-3.637 -13.645,-0.065 -27.292,-0.031 -40.937,-0.031 z"
             style="fill:#fffdfe;fill-opacity:1;fill-rule:nonzero;stroke:none"
             id="path46" /></g><g
           id="g48"
           transform="translate(1184.6074,182.3125)"><path
             d="m 0,0 -0.486,0.009 c 0,5.845 0.027,11.689 -0.007,17.533 -0.037,6.191 -1.606,7.25 -6.824,4.201 -6.204,-3.624 -12.269,-7.491 -18.314,-11.379 -15.464,-9.947 -21.164,-24.129 -18.152,-42.1 1.508,-8.999 6.557,-14.509 15.162,-16.234 9.448,-1.893 17.741,1.331 21.99,9.391 2.313,4.387 4.233,9.281 4.933,14.148 C -0.539,-16.373 -0.507,-8.152 0,0 M 48.796,-79.712 H 22.961 c -0.779,0 -1.559,-0.009 -2.339,0.002 -13.484,0.192 -13.457,0.203 -17.991,13.017 -0.479,1.353 -1.507,2.512 -1.909,3.161 -6.455,-5.228 -11.972,-11.214 -18.74,-14.903 -24.743,-13.486 -62.092,-8.715 -71.247,31.62 -3.914,17.244 -3.221,34.269 3.915,50.897 5.259,12.252 14.983,19.821 25.918,25.91 14.943,8.32 30.585,15.386 45.475,23.793 7.646,4.318 12.922,11.014 12.186,20.957 -0.632,8.528 -5.276,14.735 -13.565,16.941 -17.252,4.59 -30.194,-4.617 -30.925,-22.373 -0.343,-8.349 0.513,-8.545 -8.938,-8.59 -9.746,-0.046 -19.494,0.122 -29.24,0.052 -4.285,-0.031 -6.516,1.246 -6.047,6.124 1.568,16.309 3.613,32.713 17.634,43.496 6.754,5.194 14.967,9.635 23.187,11.551 20.729,4.833 41.804,5.031 62.36,-1.656 12.874,-4.187 21.907,-12.892 25.198,-26.17 2.321,-9.369 4.303,-19.077 4.503,-28.674 0.827,-39.744 0.665,-79.509 1.488,-119.255 0.169,-8.16 3.007,-16.265 4.912,-25.9"
             style="fill:#fffdfe;fill-opacity:1;fill-rule:nonzero;stroke:none"
             id="path50" /></g><g
           id="g52"
           transform="translate(1763.1465,177.1826)"><path
             d="m 0,0 c 3.9,0 7.801,-0.016 11.701,0.004 7.842,0.037 7.486,0.02 8.016,-7.505 0.407,-5.771 1.105,-11.731 2.99,-17.149 4.975,-14.303 29.007,-18.496 37.902,-6.285 5.807,7.971 6.041,18.759 -4.316,27.023 C 45.054,5.055 33.208,13.255 21.752,21.956 7.075,33.104 -7.134,45.109 -15.206,61.97 c -12.835,26.809 -5.356,63.189 29.026,73.123 20.096,5.806 40.386,6.856 60.201,-1.143 14.313,-5.778 24.04,-16.446 27.967,-31.392 2.202,-8.379 2.606,-17.233 3.784,-25.877 0.507,-3.715 -1.106,-5.416 -4.921,-5.345 -10.33,0.195 -20.661,0.268 -30.992,0.368 -3.625,0.034 -5.396,1.699 -5.099,5.435 0.124,1.55 0.166,3.132 0.022,4.678 -0.771,8.357 -3.396,16.049 -11.552,19.64 -8.244,3.631 -16.931,4.725 -25.046,-1.052 C 20.08,94.639 18.503,82.429 26.143,74.764 33.223,67.659 41.35,61.42 49.678,55.777 65.49,45.063 81.021,34.098 93.545,19.488 c 12.273,-14.316 18.469,-30.4 14.491,-49.63 -4.743,-22.927 -19.905,-34.807 -41.5,-39.951 -17.626,-4.198 -35.282,-3.546 -52.621,1.448 -17.472,5.034 -27.891,17.629 -32.382,34.552 -2.505,9.437 -2.344,19.577 -3.439,29.395 -0.374,3.353 1.342,4.687 4.369,4.718 C -11.691,0.078 -5.846,0.036 0,0.036 Z"
             style="fill:#fffdfe;fill-opacity:1;fill-rule:nonzero;stroke:none"
             id="path54" /></g><g
           id="g56"
           transform="translate(1436.8457,175.501)"><path
             d="m 0,0 c 4.092,0 8.185,0.042 12.276,-0.01 7.581,-0.095 7.27,-0.256 7.747,-8.106 0.373,-6.12 1.247,-12.396 3.149,-18.191 2.861,-8.719 14.056,-13.087 25.782,-10.983 9.095,1.632 15.634,8.66 15.265,18.001 -0.36,9.098 -6.881,15.09 -13.443,20.254 C 35.044,13.346 18.338,24.559 3.203,37.611 -9.811,48.835 -19.548,62.963 -20.756,81.056 c -1.69,25.336 8.005,45.557 33.448,53.616 19.993,6.332 40.305,7.052 60.148,-0.948 16.429,-6.624 25.024,-19.792 28.456,-36.612 1.279,-6.27 1.68,-12.717 2.556,-19.074 0.627,-4.553 -1.419,-6.576 -5.852,-6.485 -9.55,0.197 -19.099,0.526 -28.648,0.551 -4.019,0.011 -5.613,1.734 -5.665,5.596 -0.035,2.524 -0.523,5.039 -0.741,7.564 -1.567,18.198 -22.48,23.293 -34.279,16.569 C 19.812,96.785 17.61,82.377 25.521,74.292 31.996,67.674 39.779,62.281 47.254,56.709 56.608,49.735 66.484,43.45 75.69,36.295 88.002,26.726 97.971,15.008 104.081,0.505 c 9.255,-21.971 0.92,-53.742 -23.49,-65.148 -22.263,-10.402 -45.1,-10.174 -67.878,-3.481 -14.359,4.219 -23.741,14.819 -29.383,28.9 -4.481,11.184 -4.924,22.689 -4.824,34.417 0.033,3.788 2.056,4.722 5.138,4.751 5.451,0.051 10.902,0.014 16.353,0.014 C -0.002,-0.028 -0.001,-0.014 0,0"
             style="fill:#fffdfe;fill-opacity:1;fill-rule:nonzero;stroke:none"
             id="path58" /></g><g
           id="g60"
           transform="translate(1281.0459,175.086)"><path
             d="m 0,0 c 4.678,0 9.363,-0.169 14.031,0.049 4.476,0.209 5.92,-1.669 6.436,-6.1 0.866,-7.441 1.803,-15.104 4.382,-22.053 2.744,-7.392 14.393,-11.026 24.554,-9.159 7.777,1.429 14.118,7.224 14.207,15.491 0.052,4.944 -2.052,10.916 -5.251,14.661 C 53.259,-1.139 46.779,3.851 40.278,8.391 23.812,19.89 7.614,31.593 -5.408,47.155 c -17.643,21.085 -19.787,46.076 -6.647,68.978 5.425,9.453 14.786,15.343 25.558,18.351 18.798,5.251 37.626,6.276 56.392,0.048 17.924,-5.949 27.124,-19.524 31.07,-37.127 1.442,-6.431 1.623,-13.139 2.515,-19.703 0.501,-3.681 -0.818,-5.652 -4.617,-5.646 -10.135,0.015 -20.271,0.052 -30.407,0.111 -3.597,0.021 -5.274,1.764 -5.118,5.486 0.105,2.518 -0.09,5.081 -0.452,7.579 C 60.816,99.5 45.228,108.327 31.838,102.878 21.092,98.504 16.941,84.13 25.264,75.738 33.814,67.116 43.735,59.709 53.68,52.648 69.923,41.115 86.252,29.647 97.481,12.856 111.304,-7.81 111.35,-29.928 98.073,-50.244 91.207,-60.75 79.907,-66.713 67.617,-69.645 c -17.762,-4.239 -35.611,-4.222 -53.175,1.092 -18.612,5.631 -28.993,19.138 -32.904,37.491 -1.804,8.467 -1.487,17.389 -2.089,26.107 -0.261,3.788 1.749,5.184 5.348,5.106 C -10.138,0.043 -5.068,0.124 0,0.124 Z"
             style="fill:#fffdfe;fill-opacity:1;fill-rule:nonzero;stroke:none"
             id="path62" /></g><g
           id="g64"
           transform="translate(1057.1006,234.4395)"><path
             d="m 0,0 c 0,-35.273 -0.012,-70.547 0.009,-105.82 0.005,-7.01 0.011,-14.025 0.249,-21.03 0.121,-3.546 -1.212,-4.845 -4.75,-4.8 -11.107,0.14 -22.215,0.098 -33.322,0.043 -4.392,-0.023 -6.206,1.865 -6.235,6.384 -0.208,31.747 -0.614,63.494 -0.9,95.241 -0.245,27.273 -0.447,54.546 -0.606,81.821 -0.146,25.104 -0.103,50.212 -0.396,75.315 -0.057,4.932 1.75,6.547 6.464,6.467 9.934,-0.169 19.876,0.091 29.813,0.011 7.539,-0.06 7.993,-0.509 8.066,-7.928 C -1.352,99.201 -1.136,72.699 -0.986,46.196 -0.9,30.798 -0.971,15.398 -0.971,-0.001 -0.647,-0.001 -0.324,0 0,0"
             style="fill:#fffdfe;fill-opacity:1;fill-rule:nonzero;stroke:none"
             id="path66" /></g><g
           id="g68"
           transform="translate(1230.6475,57.336)"><path
             d="M 0,0 C 2.322,-2.362 3.736,-3.8 5.15,-5.238 3.819,-6.52 2.248,-9.023 1.208,-8.819 -0.767,-8.433 -2.438,-6.494 -4.234,-5.2 -3.086,-3.789 -1.937,-2.378 0,0"
             style="fill:#fffdfe;fill-opacity:1;fill-rule:nonzero;stroke:none"
             id="path70" /></g></g></g></g></svg>
